<?xml version="1.0" standalone="no"?>
<!DOCTYPE svg PUBLIC "-//W3C//DTD SVG 20010904//EN"
 "http://www.w3.org/TR/2001/REC-SVG-20010904/DTD/svg10.dtd">
<svg version="1.0" xmlns="http://www.w3.org/2000/svg"
 width="122.000000pt" height="122.000000pt" viewBox="0 0 122.000000 122.000000"
 preserveAspectRatio="xMidYMid meet">
<metadata>
Created by potrace 1.15, written by Peter Selinger 2001-2017
</metadata>
<g transform="translate(0.000000,122.000000) scale(0.100000,-0.100000)"
fill="#000000" stroke="none">
<path d="M0 1000 l0 -110 38 0 c33 0 45 -8 100 -63 l63 -63 -22 -20 c-45 -41
-49 -61 -49 -281 0 -233 6 -258 69 -300 29 -20 47 -23 124 -23 l91 0 -27 -28
c-15 -15 -27 -33 -27 -40 0 -9 68 -12 274 -12 273 0 274 0 269 21 -3 11 -14
26 -24 32 -34 21 -20 27 66 27 99 0 133 13 164 63 20 32 21 48 21 257 0 210
-1 224 -22 261 l-22 40 67 67 67 68 0 107 0 108 -117 -3 -118 -3 0 -105 0
-105 70 -5 70 -5 -49 -52 -49 -53 -178 0 -179 0 0 55 0 55 85 0 85 0 0 110 0
110 -195 0 -195 0 0 -110 0 -110 79 0 c84 0 91 -4 91 -55 0 -55 1 -55 -182
-55 l-169 0 -50 48 c-27 26 -49 50 -49 55 0 4 32 7 70 7 l70 0 0 110 0 110
-155 0 -155 0 0 -110z m349 -384 l102 -104 -2 -79 -2 -78 196 -3 197 -2 0 82
0 83 97 97 c54 54 101 98 105 98 5 0 8 -112 8 -250 l0 -250 -420 0 -420 0 0
255 c0 239 1 255 18 255 10 0 64 -47 121 -104z m265 88 c8 -20 8 -98 0 -118
-5 -12 -21 -16 -72 -16 l-65 0 -64 65 c-34 35 -63 69 -63 75 0 6 47 10 129 10
108 0 130 -3 135 -16z m330 9 c3 -4 -24 -38 -61 -75 l-67 -68 -73 0 -73 0 0
68 c0 38 3 72 7 75 9 9 258 9 267 0z"/>
</g>
</svg>
