<svg xmlns="http://www.w3.org/2000/svg" viewBox="0 0 218 218"><defs><style>.cls-1,.cls-2{fill:none;stroke:#1d1d1b;stroke-miterlimit:10;}.cls-1{stroke-width:7px;}.cls-2{stroke-width:6px;}</style></defs><title>c1</title><g id="Layer_1" data-name="Layer 1"><circle class="cls-1" cx="73.14" cy="50.03" r="43.49"/><polyline class="cls-1" points="216.66 148.03 129.93 148.03 118.43 164.68"/><path class="cls-1" d="M149.24,148l-.82-32.73a7.66,7.66,0,0,0-7.66-7.66H11.19a6.52,6.52,0,0,0-6.52,6.52v76.22l112,.54"/><polygon class="cls-1" points="202.24 166.74 202.24 205.23 118.01 205.23 118.43 166.74 202.24 166.74"/><polyline class="cls-2" points="202.24 166.74 213.74 152.95 213.74 185.44 213.81 191.64 203.24 206.95"/><line class="cls-1" x1="170.52" y1="157.38" x2="170.52" y2="120.24"/><polyline class="cls-1" points="156.27 132.49 170.52 116.06 184.77 132.49"/></g></svg>