<svg id="Layer_1" data-name="Layer 1" xmlns="http://www.w3.org/2000/svg" viewBox="0 0 214.44 214.44"><defs><style>.cls-1{fill:#fff;}.cls-2{fill:#211f1f;}.cls-3{fill:#020000;}</style></defs><title>3_plug</title><circle class="cls-1" cx="107.22" cy="107.22" r="107.22"/><path class="cls-2" d="M175.5,128.89a60.52,60.52,0,0,1-4.2,21.74c-9.2,23.41-32.52,39.94-59.72,39.73S61.33,173.27,52.5,149.72a60.5,60.5,0,0,1-3.86-21.8Z" transform="translate(-1.78 -1.78)"/><path class="cls-3" d="M42.37,100.59H178.13a6.87,6.87,0,0,1,6.87,6.87v2.11a6.88,6.88,0,0,1-6.88,6.88H42.37a6.87,6.87,0,0,1-6.87-6.87h0v-2.11a6.87,6.87,0,0,1,6.86-6.88Z" transform="translate(-1.78 -1.78)"/><path class="cls-2" d="M85.67,43.17h0c3.31,0,6,2.11,6,4.72V92.72c0,2.61-2.69,4.72-6,4.72h0c-3.31,0-6-2.11-6-4.72V47.89C79.67,45.28,82.36,43.17,85.67,43.17Z" transform="translate(-1.78 -1.78)"/><path class="cls-2" d="M133.5,43.17h0c3.31,0,6,2.11,6,4.72V92.72c0,2.61-2.69,4.72-6,4.72h0c-3.31,0-6-2.11-6-4.72V47.89C127.5,45.28,130.19,43.17,133.5,43.17Z" transform="translate(-1.78 -1.78)"/></svg>