<svg id="Layer_1" data-name="Layer 1" xmlns="http://www.w3.org/2000/svg" viewBox="0 0 214.44 214.44"><defs><style>.cls-1{fill:#fff;}.cls-2{fill:#211f1f;}.cls-3{fill:#020000;}.cls-4{fill:#fffdfd;}</style></defs><title>3_socket</title><circle class="cls-1" cx="107.22" cy="107.22" r="107.22"/><path class="cls-2" d="M173.5,115.89a60.52,60.52,0,0,1-4.2,21.74c-9.2,23.41-32.52,39.94-59.72,39.73S59.33,160.27,50.5,136.72a60.5,60.5,0,0,1-3.86-21.8Z" transform="translate(-1.78 -1.78)"/><path class="cls-3" d="M40.37,87.59H176.13A6.87,6.87,0,0,1,183,94.46v2.11a6.88,6.88,0,0,1-6.88,6.88H40.37a6.87,6.87,0,0,1-6.87-6.87h0V94.47a6.87,6.87,0,0,1,6.87-6.87h0Z" transform="translate(-1.78 -1.78)"/><path class="cls-4" d="M82.83,61h0a8.25,8.25,0,0,1,8.25,8.25v52.5A8.25,8.25,0,0,1,82.83,130h0a8.25,8.25,0,0,1-8.25-8.25V69.26A8.25,8.25,0,0,1,82.83,61Z" transform="translate(-1.78 -1.78)"/><path class="cls-4" d="M134.63,61h0a7.71,7.71,0,0,1,7.71,7.71V122.3a7.71,7.71,0,0,1-7.71,7.71h0a7.71,7.71,0,0,1-7.71-7.71V68.72A7.71,7.71,0,0,1,134.63,61Z" transform="translate(-1.78 -1.78)"/></svg>