<?xml version="1.0" standalone="no"?>
<!DOCTYPE svg PUBLIC "-//W3C//DTD SVG 20010904//EN"
 "http://www.w3.org/TR/2001/REC-SVG-20010904/DTD/svg10.dtd">
<svg version="1.0" xmlns="http://www.w3.org/2000/svg"
 width="122.000000pt" height="122.000000pt" viewBox="0 0 122.000000 122.000000"
 preserveAspectRatio="xMidYMid meet">
<metadata>
Created by potrace 1.15, written by Peter Selinger 2001-2017
</metadata>
<g transform="translate(0.000000,122.000000) scale(0.100000,-0.100000)"
fill="#000000" stroke="none">
<path d="M0 1020 l0 -100 62 0 62 0 58 -57 58 -57 -28 -29 -27 -28 0 -220 0
-221 37 -34 c37 -33 40 -34 123 -34 87 0 100 -6 65 -28 -11 -7 -20 -21 -20
-32 0 -19 7 -20 250 -20 146 0 250 4 250 9 0 5 -12 23 -26 40 l-26 31 82 0
c158 0 170 21 170 295 0 184 -1 200 -21 232 l-22 35 59 59 c43 44 66 59 86 59
l28 0 0 100 0 101 -132 -3 -133 -3 0 -95 0 -95 64 -3 64 -3 -49 -50 -48 -49
-158 0 -158 0 0 50 0 50 80 0 81 0 -3 98 -3 97 -180 0 -180 0 0 -95 0 -95 78
-3 77 -3 0 -49 0 -50 -158 0 -158 0 -49 50 -49 50 67 0 67 0 0 100 0 100 -170
0 -170 0 0 -100z m373 -348 l87 -87 0 -78 0 -77 185 0 185 0 0 78 0 77 88 88
c48 48 91 87 95 87 4 0 7 -103 7 -230 l0 -230 -385 0 -385 0 0 230 c0 213 1
230 18 230 9 0 57 -39 105 -88z m247 23 l0 -65 -63 0 -63 0 -64 65 -64 65 127
0 127 0 0 -65z m240 0 l-64 -65 -63 0 -63 0 0 65 0 65 127 0 127 0 -64 -65z"/>
</g>
</svg>
