<svg id="Layer_1" data-name="Layer 1" xmlns="http://www.w3.org/2000/svg" viewBox="0 0 218 218"><defs><style>.cls-1,.cls-2{fill:none;}.cls-1{stroke:#1d1d1b;stroke-miterlimit:10;stroke-width:6px;}</style></defs><title>Cape all icon Ai - white</title><path class="cls-1" d="M54.12,149A51.44,51.44,0,1,1,157,149q0,1.19-.05,2.37"/><path class="cls-1" d="M54.12,149c0-28.41,23.34-53.82,51.75-53.82S159.3,118,159.3,146.4c0,0.79.18,4.22,0.14,5"/><circle class="cls-1" cx="105.31" cy="147.13" r="3"/><line class="cls-1" x1="106.88" y1="145.13" x2="134.29" y2="118.67"/><polygon class="cls-2" points="136.46 120.97 133.32 119.66 132.11 116.4 135.29 117.82 136.46 120.97"/><rect class="cls-1" x="6.87" y="43.71" width="204.26" height="147.06"/><line class="cls-1" x1="6.85" y1="66.28" x2="211.12" y2="66.9"/><line class="cls-1" x1="17.19" y1="54.41" x2="25.4" y2="54.41"/><line class="cls-1" x1="177.4" y1="54.47" x2="201.21" y2="54.35"/></svg>