<svg id="Layer_1" data-name="Layer 1" xmlns="http://www.w3.org/2000/svg" viewBox="0 0 218 218"><defs><style>.cls-1{fill:none;stroke:#1d1d1b;stroke-miterlimit:10;stroke-width:6px;}.cls-2{fill:#fff;}</style></defs><title>Cape all icon Ai - white</title><rect class="cls-1" x="7.38" y="46.09" width="205.64" height="148.05"/><line class="cls-1" x1="6.15" y1="68.73" x2="211.79" y2="69.35"/><line class="cls-1" x1="16.75" y1="56.63" x2="25.02" y2="56.63"/><line class="cls-1" x1="178.21" y1="58.13" x2="202.18" y2="58.01"/><circle class="cls-1" cx="109.44" cy="130" r="39.33"/><polygon class="cls-2" points="71.18 156.06 82.2 147.84 91.78 155.31 82.23 168.5 71.18 156.06"/><polygon class="cls-2" points="134.33 141.7 144.19 130.86 155.16 131.96 152.56 149.28 134.33 141.7"/><polyline class="cls-1" points="65.22 148.72 78.26 154.14 80.99 140.38"/><polygon class="cls-2" points="91.56 86.7 112.41 81.11 113.91 94.96 96.62 99.58 91.56 86.7"/><polyline class="cls-1" points="150.3 156.06 146.4 142.49 133.94 148.94"/><polyline class="cls-1" points="121.31 82.89 109.25 90.25 118.77 100.55"/></svg>