<svg id="Layer_1" data-name="Layer 1" xmlns="http://www.w3.org/2000/svg" viewBox="0 0 185.39 185.39"><defs><style>.cls-1{fill:#000100;}</style></defs><title>application-server</title><path class="cls-1" d="M220,2265.35v-66.74H34.61v66.74h89v22.25h-89v66.74h89v22.25H66.19c-3.71,3.29-1.44,7.42,1.79,7.42H186.65a3.61,3.61,0,0,0,3.36-2.12,3.73,3.73,0,0,0-3.38-5.3H131v-22.25h89V2287.6H131v-22.25h89Zm-7.42,81.57H42V2295H212.58v51.91ZM42,2206H212.58v51.91H42V2206Z" transform="translate(-34.61 -2198.61)"/><circle class="cls-1" cx="33.37" cy="33.37" r="7.42"/><path class="cls-1" d="M149.55,2235.69h38.86c3.72-3.26,1.46-7.42-1.78-7.42H147.77C144.05,2231.54,146.31,2235.69,149.55,2235.69Z" transform="translate(-34.61 -2198.61)"/><circle class="cls-1" cx="33.37" cy="122.36" r="7.42"/><path class="cls-1" d="M149.55,2324.68h38.88c3.69-3.29,1.44-7.42-1.8-7.42H147.75C144.06,2320.55,146.32,2324.68,149.55,2324.68Z" transform="translate(-34.61 -2198.61)"/></svg>