<svg id="Layer_1" data-name="Layer 1" xmlns="http://www.w3.org/2000/svg" viewBox="0 0 139.51 118.17"><title>artifact repository</title><path d="M138.71,12.45h0L138.56,8V-2.4a6,6,0,0,0-6-6h-1.39v-6.65a6,6,0,0,0-6-6h-1.39v-4a6,6,0,0,0-6-6h-21a6,6,0,0,0-6,6v4.33h-71a6,6,0,0,0-6,6V12.3H5.7V87H145.21V18.79A6.4,6.4,0,0,0,138.71,12.45ZM134.07-2.4V12.45H33.23V6.57h77V-3.79h22.12A1.4,1.4,0,0,1,134.07-2.4ZM126.5-15.08v6.5H111.8a6,6,0,0,0-6,6V1.78h-71a6,6,0,0,0-6,6V12.3H25.81V-6.11h77V-16.47h22.12A1.43,1.43,0,0,1,126.5-15.08ZM18.23-16.16h77V-26.53h23.66v5.41H104.22a6,6,0,0,0-6,6v4.33h-71a6,6,0,0,0-6,6v17H18.23V-16.16ZM140.57,82.51H10.34V16.94H140.57V82.51Z" transform="translate(-5.7 31.17)"/></svg>