<svg id="Layer_1" data-name="Layer 1" xmlns="http://www.w3.org/2000/svg" viewBox="0 0 218 218"><defs><style>.cls-1{fill:#000101;}.cls-2{fill:#fff;}.cls-3{fill:#1d1d1b;}</style></defs><title>aws 2</title><path class="cls-1" d="M116.47,170c-22.67,0-45.33.15-68,0C26.78,169.78,6.53,151.65,2.9,130.2a48.94,48.94,0,0,1,39.91-57,44.09,44.09,0,0,1,18.54.59c2.63,0.69,3.16-.54,4-2.23,7.6-14.78,19.79-23.67,36-26.23,15.83-2.5,29.95,2,41.48,13.42,1.85,1.82,3.19,2.08,5.58,1.31,24.6-8,49.77,14,45,39.21-0.39,2.07.33,2.56,1.88,3.23,26.2,11.17,30.23,44,7.42,61.1a30.43,30.43,0,0,1-18.3,6.4C161.8,170.07,139.13,170,116.47,170Z"/><path class="cls-2" d="M115.77,163H53c-14.65,0-26.8-5.28-35.61-17.23C-1,120.79,14.05,84.8,44.6,80.31a42.44,42.44,0,0,1,17.77,1.27c5.32,1.47,5.88,1.22,8.1-3.9a41.37,41.37,0,0,1,24-23.06c15.52-6,34.28-1.45,45.16,11.1,3.67,4.23,3.67,4.23,8.74,2.13a27.65,27.65,0,0,1,38.12,22.64,30.63,30.63,0,0,1-.92,10.92c-1,4.31-.41,5.61,3.88,6.74a27.52,27.52,0,0,1,16.26,11.51c11.65,17.08.44,40.91-20.19,42.81-11.88,1.09-23.8.31-35.7,0.45C138.44,163.06,127.1,163,115.77,163Z"/><path class="cls-3" d="M83.92,107.88c0,4,0,7.92,0,11.88,0,1-.16,1.23-1.14.79q-8.5-3.81-17-7.53a1.14,1.14,0,0,1-.83-1.24q0.22-11.62.37-23.24c0-.77.15-1,1-0.66q8.39,3.41,16.82,6.73a1.32,1.32,0,0,1,.85,1.52Q83.91,102,83.92,107.88Z"/><path class="cls-3" d="M125.57,120c-6.13-2.7-12.17-5.38-18.23-8a0.89,0.89,0,0,1-.59-1q0.19-11.69.36-23.38c0-.89.36-0.89,1-0.61q8.41,3.38,16.83,6.73a1,1,0,0,1,.77,1q0,12.35,0,24.69A3,3,0,0,1,125.57,120Z"/><path class="cls-3" d="M105.26,143.69c0,4,0,7.93,0,11.89,0,1.07-.28,1.13-1.16.73q-8.39-3.75-16.83-7.42a1.39,1.39,0,0,1-1-1.56q0.22-11.43.35-22.86c0-.89.17-1.14,1.08-0.77q8.27,3.37,16.58,6.64a1.3,1.3,0,0,1,.94,1.45C105.24,135.76,105.26,139.73,105.26,143.69Z"/><path class="cls-3" d="M129,117.73c0-8.08,0-16,0-23.83a1,1,0,0,1,.75-1q7.8-3,15.58-5.93c0.64-.24.9-0.19,0.9,0.62q0,11.23,0,22.45a0.88,0.88,0,0,1-.6,1C140.15,113.2,134.69,115.43,129,117.73Z"/><path class="cls-3" d="M108.6,142.12c0-3.7,0-7.4,0-11.1a1.35,1.35,0,0,1,1-1.54q7.57-2.83,15.11-5.75c1-.38,1.14-0.12,1.13.83q0,11,0,21.95a1.2,1.2,0,0,1-.88,1.34q-7.63,3-15.22,6.18c-1,.41-1.14.17-1.12-0.8C108.63,149.53,108.6,145.82,108.6,142.12Z"/><path class="cls-3" d="M104.39,87.54c0,3.16,0,6.12,0,9.08q0,7,0,14a1.19,1.19,0,0,1-.77,1.41c-5.17,2-10.32,4.15-15.47,6.26-0.73.3-1,.25-1-0.62q0-11.37,0-22.73a1,1,0,0,1,.68-1.09C93.3,91.77,98.73,89.69,104.39,87.54Z"/><path class="cls-3" d="M97.85,86.15c-4.66,1.71-9,3.31-13.38,4.93a1.36,1.36,0,0,1-1.11,0c-3.75-1.62-7.5-3.21-11.49-4.91l4-1.7L84,81a1.54,1.54,0,0,1,1.35-.17C89.39,82.54,93.46,84.27,97.85,86.15Z"/><path class="cls-3" d="M119,122c-4.4,1.63-8.78,3.25-13.16,4.89a1.34,1.34,0,0,1-1.11-.08l-11.13-4.79a0.87,0.87,0,0,1,.78-0.57c3.59-1.55,7.19-3.06,10.76-4.64a2.61,2.61,0,0,1,2.32,0c3.54,1.56,7.1,3,10.65,4.58A1.23,1.23,0,0,1,119,122Z"/><path class="cls-3" d="M113.71,85.23l12.36-5.33a1.48,1.48,0,0,1,1.25,0l12.11,5.21a15.07,15.07,0,0,1-3.38,1.41c-3.17,1.2-6.36,2.34-9.54,3.52a1.57,1.57,0,0,1-1.25.11Z"/></svg>