<svg id="Layer_1" data-name="Layer 1" xmlns="http://www.w3.org/2000/svg" viewBox="0 0 218 218"><defs><style>.cls-1{fill:#000101;}.cls-2{fill:#fff;}</style></defs><title>azure 2</title><path class="cls-1" d="M116.31,171.66c-22.67,0-45.33.15-68,0-21.69-.18-41.94-18.32-45.57-39.77a48.94,48.94,0,0,1,39.91-57,44.09,44.09,0,0,1,18.54.59c2.63,0.69,3.16-.54,4-2.23C72.81,58.41,85,49.51,101.22,47c15.83-2.5,29.95,2,41.48,13.42,1.85,1.82,3.19,2.08,5.58,1.31,24.6-8,49.77,14,45,39.21-0.39,2.07.33,2.56,1.88,3.23,26.2,11.17,30.23,44,7.42,61.1a30.43,30.43,0,0,1-18.3,6.4C161.65,171.72,139,171.66,116.31,171.66Z"/><path class="cls-2" d="M115.62,164.6H52.82c-14.65,0-26.8-5.28-35.61-17.23C-1.18,122.44,13.9,86.45,44.44,82a42.44,42.44,0,0,1,17.77,1.27c5.32,1.47,5.88,1.22,8.1-3.9a41.37,41.37,0,0,1,24-23.06c15.52-6,34.28-1.45,45.16,11.1,3.67,4.23,3.67,4.23,8.74,2.13a27.65,27.65,0,0,1,38.12,22.64,30.63,30.63,0,0,1-.92,10.92c-1,4.31-.41,5.61,3.88,6.74a27.52,27.52,0,0,1,16.26,11.51c11.65,17.08.44,40.91-20.19,42.81-11.88,1.09-23.8.31-35.7,0.45C138.28,164.71,126.95,164.6,115.62,164.6Z"/><path class="cls-1" d="M127.65,118.21c-6.81,0-13.62,0-20.43,0-0.78,0-1.09-.12-1.09-1q0.05-14.91,0-29.82a0.91,0.91,0,0,1,1-1.13c6.37-.84,12.74-1.76,19.11-2.64q9-1.24,17.94-2.44c1.44-.2,2.9-0.33,4.32-0.61,0.73-.14.88,0,0.88,0.73,0,4.44,0,8.88,0,13.32,0,7.54,0,15.08,0,22.62,0,0.81-.21,1-1,1C141.45,118.2,134.55,118.21,127.65,118.21Z"/><path class="cls-1" d="M127.84,122.22c6.84,0,13.68,0,20.51,0,0.8,0,1,.19,1,1q0,17.73,0,35.47c0,0.69-.1.92-0.88,0.81-6.45-.93-12.91-1.82-19.37-2.71q-8.34-1.14-16.68-2.25c-1.86-.25-3.73-0.51-5.59-0.74a0.69,0.69,0,0,1-.69-0.84q0-15,0-30c0-.76.39-0.73,0.91-0.73h20.79Z"/><path class="cls-1" d="M86.38,118.21c-5.11,0-10.21,0-15.32,0-0.74,0-.9-0.22-0.9-0.92q0-12.54,0-25.08a0.84,0.84,0,0,1,.89-1c8.26-1.12,16.52-2.28,24.78-3.42,2-.27,3.91-0.48,5.86-0.79,0.8-.13.94,0.13,0.94,0.88,0,9.15,0,18.3,0,27.45,0,0.93.41,2.13-.19,2.72s-1.74.15-2.64,0.15C95.32,118.22,90.85,118.21,86.38,118.21Z"/><path class="cls-1" d="M86.46,122.22c5.08,0,10.16,0,15.23,0,0.77,0,1,.22,1,1q0,14.5,0,29c0,0.79-.22,1-1,0.88q-12.89-1.82-25.78-3.6c-1.59-.22-3.19-0.43-4.79-0.59a0.88,0.88,0,0,1-.93-1.09q0-12.31,0-24.63c0-.77.22-1,1-0.95C76.24,122.24,81.35,122.22,86.46,122.22Z"/></svg>