<svg id="Layer_1" data-name="Layer 1" xmlns="http://www.w3.org/2000/svg" viewBox="0 0 218 218"><defs><style>.cls-1{fill:#010202;stroke:#000100;stroke-width:2px;}.cls-1,.cls-2{stroke-miterlimit:10;}.cls-2{fill:none;stroke:#1d1d1b;stroke-width:5px;}</style></defs><title>c</title><path class="cls-1" d="M68.47,143.15A11.08,11.08,0,1,1,78.63,131h0A11.24,11.24,0,0,1,68.47,143.15Zm-1.9-18.88a7.91,7.91,0,1,0,8.85,7.06h0a8,8,0,0,0-8.85-7.07h0Zm10.79,42.63-12.88,1.29a1.61,1.61,0,0,1-1.77-1.41L62,160.17a28,28,0,0,1-6.2-1.84l-4.29,5.12a1.59,1.59,0,0,1-2.2.27l-0.06,0-10.08-7.91a1.5,1.5,0,0,1-.27-2.15l0-.06,4.29-5.11a29.21,29.21,0,0,1-3.08-5.58l-6.69.67a1.61,1.61,0,0,1-1.77-1.41l-1.27-12.68a1.61,1.61,0,0,1,1.45-1.73L38.7,127A26.58,26.58,0,0,1,40.61,121l-5.22-4.18a1.5,1.5,0,0,1-.27-2.15l0-.06,8.21-9.8a1.59,1.59,0,0,1,2.2-.27l0.06,0,5.22,4.17a30.58,30.58,0,0,1,5.71-3l-0.66-6.61a1.61,1.61,0,0,1,1.45-1.74l12.89-1.29A1.61,1.61,0,0,1,72,97.48l0.66,6.61a28,28,0,0,1,6.2,1.84l4.29-5.12a1.59,1.59,0,0,1,2.2-.27l0.06,0,10,8a1.5,1.5,0,0,1,.27,2.15l0,0.06-4.29,5.12a29.12,29.12,0,0,1,3.08,5.57l6.77-.68a1.61,1.61,0,0,1,1.77,1.41l1.26,12.59a1.61,1.61,0,0,1-1.45,1.73l-6.77.68a26.66,26.66,0,0,1-1.91,6.07l5.22,4.17a1.5,1.5,0,0,1,.27,2.15l0,0.06-8.12,9.87a1.59,1.59,0,0,1-2.2.27l-0.06,0-5.22-4.17a30.58,30.58,0,0,1-5.71,3l0.66,6.53a1.74,1.74,0,0,1-1.51,1.76h0Zm-11.6-2,9.67-1-0.63-6.29A1.53,1.53,0,0,1,75.86,156a27.14,27.14,0,0,0,7-3.71,1.63,1.63,0,0,1,2,0l5,4L96,148.9l-5-4a1.54,1.54,0,0,1-.44-1.94A25.88,25.88,0,0,0,93,135.54a1.55,1.55,0,0,1,1.41-1.34l6.44-.65-0.95-9.44-6.44.65a1.55,1.55,0,0,1-1.65-1A25.87,25.87,0,0,0,88,116.88a1.54,1.54,0,0,1,0-2L92.16,110l-7.5-6-4.07,4.86a1.63,1.63,0,0,1-2,.44A27.17,27.17,0,0,0,71,107a1.53,1.53,0,0,1-1.36-1.37L69,99.38l-9.67,1L60,106.64a1.53,1.53,0,0,1-1.06,1.62,27.17,27.17,0,0,0-7,3.72,1.63,1.63,0,0,1-2,0l-5-4-6.21,7.37,5,4a1.54,1.54,0,0,1,.44,1.94,25.87,25.87,0,0,0-2.34,7.47,1.54,1.54,0,0,1-1.41,1.33l-6.44.65,0.95,9.44,6.44-.65a1.56,1.56,0,0,1,1.65,1,25.87,25.87,0,0,0,3.78,6.85,1.54,1.54,0,0,1,0,2l-4.07,4.86,7.52,6,4.06-4.87a1.63,1.63,0,0,1,2-.43,27.14,27.14,0,0,0,7.64,2.25,1.53,1.53,0,0,1,1.36,1.37l0.63,6.29h0Z"/><path class="cls-1" d="M123.12,83a16.42,16.42,0,1,1,21.79-8.56v0A16.6,16.6,0,0,1,123.12,83ZM134.18,57.1a11.73,11.73,0,1,0,6.35,15.47h0a11.86,11.86,0,0,0-6.35-15.48h0Zm-16.59,63-17.53-7.49a2.37,2.37,0,0,1-1.27-3.09l3.87-9.06A41.06,41.06,0,0,1,96,93.69l-9.19,3.6a2.33,2.33,0,0,1-3-1.21l0-.11L76.41,78.53a2.24,2.24,0,0,1,1.19-3l0.11,0,9.18-3.58a43.47,43.47,0,0,1,0-9.44l-9.1-3.89a2.37,2.37,0,0,1-1.27-3.09L84,38.13a2.37,2.37,0,0,1,3.11-1.22l9.2,3.94a39.56,39.56,0,0,1,6.8-6.51L99.34,25.2a2.24,2.24,0,0,1,1.19-3l0.11,0,17.59-6.87a2.33,2.33,0,0,1,3,1.21l0,0.11L125,25.74a44.84,44.84,0,0,1,9.53.13l3.87-9.06a2.39,2.39,0,0,1,3.12-1.23l17.54,7.5a2.39,2.39,0,0,1,1.26,3.1l-3.87,9.06A41.06,41.06,0,0,1,163.16,42l9.19-3.6a2.33,2.33,0,0,1,3,1.21l0,0.11,7.17,17.48a2.24,2.24,0,0,1-1.19,3l-0.11,0-9.19,3.6a43.34,43.34,0,0,1,0,9.43l9.2,3.94a2.37,2.37,0,0,1,1.27,3.09l-7.38,17.25a2.37,2.37,0,0,1-3.11,1.22l-9.21-3.94a39.68,39.68,0,0,1-6.81,6.52l3.75,9.13a2.24,2.24,0,0,1-1.19,3l-0.11,0-17.52,7a2.33,2.33,0,0,1-3-1.21l0-.11-3.75-9.13a44.84,44.84,0,0,1-9.53-.13l-3.83,8.95a2.56,2.56,0,0,1-3.21,1.21h0Zm-13.5-10.88,13.15,5.62,3.69-8.62a2.27,2.27,0,0,1,2.52-1.34,39.8,39.8,0,0,0,11.71.18,2.38,2.38,0,0,1,2.6,1.48l3.55,8.66,13.22-5.16L151,101.42a2.29,2.29,0,0,1,.82-2.84,38.51,38.51,0,0,0,8.37-8,2.29,2.29,0,0,1,2.77-.73l8.76,3.75,5.53-12.94-8.76-3.75a2.29,2.29,0,0,1-1.39-2.51,38.51,38.51,0,0,0,0-11.59,2.29,2.29,0,0,1,1.49-2.55l8.71-3.41L172,43.66l-8.71,3.41a2.39,2.39,0,0,1-2.88-.84,39.84,39.84,0,0,0-8.22-8.36,2.27,2.27,0,0,1-.77-2.75l3.69-8.63-13.15-5.62-3.69,8.62a2.27,2.27,0,0,1-2.52,1.34A39.84,39.84,0,0,0,124,30.66a2.39,2.39,0,0,1-2.6-1.5l-3.55-8.66-13.28,5.15,3.55,8.67a2.29,2.29,0,0,1-.82,2.84,38.51,38.51,0,0,0-8.35,8,2.27,2.27,0,0,1-2.77.72l-8.76-3.75L81.9,55.1l8.76,3.75A2.3,2.3,0,0,1,92,61.38,38.51,38.51,0,0,0,92,73a2.29,2.29,0,0,1-1.49,2.55l-8.71,3.41L87.2,92.07l8.72-3.43a2.38,2.38,0,0,1,2.87.86A39.8,39.8,0,0,0,107,97.87a2.27,2.27,0,0,1,.77,2.75l-3.69,8.62Z"/><path class="cls-2" d="M149.23,152.78l33.41,36.06a7.54,7.54,0,0,1-.41,10.65l-0.94.87a7.54,7.54,0,0,1-10.65-.41l-32.58-35.16-1.35-1.45"/><path class="cls-2" d="M124.52,128.62l11.56,12.48-9.92,9.19-11.28-12.18a18,18,0,0,0,3,19.87c6.77,7.31,18.38,7.57,25.93.58s8.17-18.59,1.4-25.9A18.1,18.1,0,0,0,124.52,128.62Z"/></svg>