<svg id="Layer_1" data-name="Layer 1" xmlns="http://www.w3.org/2000/svg" viewBox="0 0 182.93 182.44"><defs><style>.cls-1{fill:#000100;stroke:#000100;stroke-width:2px;}.cls-1,.cls-2,.cls-3{stroke-miterlimit:10;}.cls-2{fill:none;}.cls-2,.cls-3{stroke:#1d1d1b;stroke-width:6px;}.cls-3{fill:#1d1d1b;}</style></defs><title>continuous-integration</title><path class="cls-1" d="M398.38,945.23A15.64,15.64,0,1,1,414,929.59,15.68,15.68,0,0,1,398.38,945.23Zm0-26.8a11.17,11.17,0,1,0,11.17,11.17A11.2,11.2,0,0,0,398.38,918.42Zm8.93,61.43H389.45a2.24,2.24,0,0,1-2.23-2.23v-9.38a38.13,38.13,0,0,1-8.26-3.46l-6.59,6.59a2.16,2.16,0,0,1-3.13,0L356.5,958.85a2.16,2.16,0,0,1,0-3.13l6.59-6.59a41.64,41.64,0,0,1-3.46-8.26h-9.27a2.24,2.24,0,0,1-2.23-2.23v-18a2.24,2.24,0,0,1,2.23-2.23h9.38a38.13,38.13,0,0,1,3.46-8.26l-6.59-6.59a2.16,2.16,0,0,1,0-3.13l12.62-12.62a2.16,2.16,0,0,1,3.13,0l6.59,6.59a41.64,41.64,0,0,1,8.26-3.46v-9.38a2.24,2.24,0,0,1,2.23-2.23h17.87a2.24,2.24,0,0,1,2.23,2.23v9.38a38.13,38.13,0,0,1,8.26,3.46l6.59-6.59a2.16,2.16,0,0,1,3.13,0l12.62,12.62a2.16,2.16,0,0,1,0,3.13l-6.59,6.59a41.64,41.64,0,0,1,3.46,8.26h9.38a2.24,2.24,0,0,1,2.23,2.23v17.87a2.24,2.24,0,0,1-2.23,2.23H437a38.13,38.13,0,0,1-3.46,8.26l6.59,6.59a2.16,2.16,0,0,1,0,3.13l-12.51,12.73a2.16,2.16,0,0,1-3.13,0l-6.59-6.59a41.64,41.64,0,0,1-8.26,3.46v9.27A2.42,2.42,0,0,1,407.32,979.85Zm-15.64-4.47h13.4v-8.93a2.15,2.15,0,0,1,1.68-2.12,37,37,0,0,0,10.16-4.24,2.21,2.21,0,0,1,2.79.34l6.25,6.25,9.49-9.49-6.25-6.25a2.21,2.21,0,0,1-.34-2.79A37,37,0,0,0,433.11,938a2.15,2.15,0,0,1,2.12-1.68h8.93v-13.4h-8.93a2.15,2.15,0,0,1-2.12-1.68,37,37,0,0,0-4.24-10.16,2.21,2.21,0,0,1,.34-2.79l6.25-6.25L426,892.51l-6.25,6.25a2.21,2.21,0,0,1-2.79.34,37,37,0,0,0-10.16-4.24,2.15,2.15,0,0,1-1.68-2.12V883.8h-13.4v8.93a2.15,2.15,0,0,1-1.68,2.12,37,37,0,0,0-10.16,4.24,2.21,2.21,0,0,1-2.79-.34l-6.25-6.25L361.3,902l6.25,6.25a2.21,2.21,0,0,1,.34,2.79,37,37,0,0,0-4.24,10.16,2.15,2.15,0,0,1-2.12,1.68h-8.93v13.4h8.93a2.15,2.15,0,0,1,2.12,1.68,37,37,0,0,0,4.24,10.16,2.21,2.21,0,0,1-.34,2.79l-6.25,6.25,9.49,9.49,6.25-6.25a2.21,2.21,0,0,1,2.79-.34A37,37,0,0,0,390,964.32a2.15,2.15,0,0,1,1.68,2.12v8.93Z" transform="translate(-347.12 -798.41)"/><path class="cls-1" d="M478.79,865.31a15.64,15.64,0,1,1,15.64-15.64A15.68,15.68,0,0,1,478.79,865.31Zm0-26.8A11.17,11.17,0,1,0,490,849.67,11.2,11.2,0,0,0,478.79,838.5Zm8.93,61.43H469.86a2.24,2.24,0,0,1-2.23-2.23v-9.38a38.13,38.13,0,0,1-8.26-3.46l-6.59,6.59a2.16,2.16,0,0,1-3.13,0l-12.73-12.51a2.16,2.16,0,0,1,0-3.13l6.59-6.59a41.64,41.64,0,0,1-3.46-8.26h-9.27a2.24,2.24,0,0,1-2.23-2.23v-18a2.24,2.24,0,0,1,2.23-2.23h9.38a38.13,38.13,0,0,1,3.46-8.26L437,823.65a2.16,2.16,0,0,1,0-3.13l12.62-12.62a2.16,2.16,0,0,1,3.13,0l6.59,6.59a41.64,41.64,0,0,1,8.26-3.46v-9.38a2.24,2.24,0,0,1,2.23-2.23h17.87a2.24,2.24,0,0,1,2.23,2.23V811a38.13,38.13,0,0,1,8.26,3.46l6.59-6.59a2.16,2.16,0,0,1,3.13,0l12.62,12.62a2.16,2.16,0,0,1,0,3.13L514,830.24a41.64,41.64,0,0,1,3.46,8.26h9.38a2.24,2.24,0,0,1,2.23,2.23V858.6a2.24,2.24,0,0,1-2.23,2.23h-9.38A38.13,38.13,0,0,1,514,869.1l6.59,6.59a2.16,2.16,0,0,1,0,3.13l-12.51,12.73a2.16,2.16,0,0,1-3.13,0L498.34,885a41.64,41.64,0,0,1-8.26,3.46v9.27A2.42,2.42,0,0,1,487.73,899.93Zm-15.64-4.47h13.4v-8.93a2.15,2.15,0,0,1,1.68-2.12,37,37,0,0,0,10.16-4.24,2.21,2.21,0,0,1,2.79.34l6.25,6.25,9.49-9.49L509.62,871a2.21,2.21,0,0,1-.34-2.79A37,37,0,0,0,513.53,858a2.15,2.15,0,0,1,2.12-1.68h8.93V843h-8.93a2.15,2.15,0,0,1-2.12-1.68,37,37,0,0,0-4.24-10.16,2.21,2.21,0,0,1,.34-2.79l6.25-6.25-9.49-9.49-6.25,6.25a2.21,2.21,0,0,1-2.79.34,37,37,0,0,0-10.16-4.24,2.15,2.15,0,0,1-1.68-2.12v-8.93h-13.4v8.93a2.15,2.15,0,0,1-1.68,2.12,37,37,0,0,0-10.16,4.24,2.21,2.21,0,0,1-2.79-.34l-6.25-6.25-9.49,9.49,6.25,6.25a2.21,2.21,0,0,1,.34,2.79,37,37,0,0,0-4.24,10.16,2.15,2.15,0,0,1-2.12,1.68H433v13.4h8.93a2.15,2.15,0,0,1,2.12,1.68,37,37,0,0,0,4.24,10.16A2.21,2.21,0,0,1,448,871l-6.25,6.25,9.49,9.49,6.25-6.25a2.21,2.21,0,0,1,2.79-.34,37,37,0,0,0,10.16,4.24,2.15,2.15,0,0,1,1.68,2.12v8.93Z" transform="translate(-347.12 -798.41)"/><line class="cls-2" x1="78.31" y1="12.84" x2="20.21" y2="12.78"/><line class="cls-2" x1="22.23" y1="71.35" x2="22.23" y2="13.49"/><polygon class="cls-3" points="26.82 65.11 22.23 76.28 13.32 55.95 31.14 55.95 26.82 65.11"/><line class="cls-2" x1="157.08" y1="171.09" x2="99.26" y2="171.31"/><line class="cls-2" x1="155.17" y1="173.4" x2="155.17" y2="113.39"/><polygon class="cls-3" points="150.19 117.64 155.24 106.7 164.08 127.07 146.26 127.01 150.19 117.64"/></svg>