<svg id="Layer_1" data-name="Layer 1" xmlns="http://www.w3.org/2000/svg" viewBox="0 0 134.74 204.55"><defs><style>.cls-1{fill:none;stroke-width:7px;}.cls-1,.cls-2{stroke:#1e1e1c;stroke-miterlimit:10;}.cls-2{fill:#000100;stroke-width:3px;}</style></defs><title>database-server</title><line class="cls-1" x1="66.53" y1="170.08" x2="66.53" y2="204.3"/><line class="cls-1" x1="9.05" y1="201.05" x2="121.85" y2="201.05"/><path class="cls-2" d="M1532.68,2192.35c-17.88,0-34,2.42-45.85,6.49a46.89,46.89,0,0,0-14.28,7.36c-3.5,2.85-5.74,6.28-5.74,10.1v123.75c0,3.82,2.24,7.25,5.74,10.1s8.36,5.26,14.28,7.3c11.84,4.07,28,6.55,45.85,6.55s34-2.48,45.85-6.55c5.92-2,10.78-4.44,14.28-7.3s5.74-6.28,5.74-10.1V2216.3c0-3.82-2.24-7.25-5.74-10.1a46.89,46.89,0,0,0-14.28-7.36C1566.68,2194.77,1550.56,2192.35,1532.68,2192.35Zm0,4c17.51,0,33.29,2.43,44.54,6.3,5.62,1.93,10.15,4.21,13.1,6.61s4.24,4.79,4.24,7-1.29,4.58-4.24,7-7.47,4.68-13.1,6.61c-11.25,3.87-27,6.36-44.54,6.36s-33.29-2.5-44.54-6.36c-5.62-1.93-10.15-4.21-13.1-6.61s-4.24-4.72-4.24-7,1.29-4.65,4.24-7,7.47-4.68,13.1-6.61C1499.39,2198.78,1515.17,2196.34,1532.68,2196.34Zm61.88,28.44v33.06a2,2,0,0,0,0,.25v0.12c0,2.26-1.29,4.58-4.24,7s-7.47,4.68-13.1,6.61c-11.25,3.87-27,6.36-44.54,6.36s-33.29-2.5-44.54-6.36c-5.62-1.93-10.15-4.21-13.1-6.61s-4.24-4.72-4.24-7a2,2,0,0,0,0-.37v-33a21.27,21.27,0,0,0,1.75,1.56c3.5,2.85,8.36,5.26,14.28,7.3,11.84,4.07,28,6.55,45.85,6.55s34-2.48,45.85-6.55c5.92-2,10.78-4.44,14.28-7.3A22.67,22.67,0,0,0,1594.55,2224.79Zm-123.75,42a22.59,22.59,0,0,0,1.75,1.56c3.5,2.85,8.36,5.26,14.28,7.3,11.84,4.07,28,6.55,45.85,6.55s34-2.48,45.85-6.55c5.92-2,10.78-4.44,14.28-7.3a22.6,22.6,0,0,0,1.75-1.56v31a2,2,0,0,0,0,.25v0.12c0,2.26-1.29,4.58-4.24,7s-7.47,4.68-13.1,6.61c-11.25,3.87-27,6.36-44.54,6.36s-33.29-2.5-44.54-6.36c-5.62-1.93-10.15-4.21-13.1-6.61s-4.24-4.72-4.24-7a2,2,0,0,0,0-.37v-31Zm0,39.92a22.59,22.59,0,0,0,1.75,1.56c3.5,2.85,8.36,5.26,14.28,7.3,11.84,4.07,28,6.55,45.85,6.55s34-2.48,45.85-6.55c5.92-2,10.78-4.44,14.28-7.3a22.59,22.59,0,0,0,1.75-1.56v33.37c0,2.26-1.29,4.58-4.24,7s-7.47,4.68-13.1,6.61c-11.25,3.87-27,6.36-44.54,6.36s-33.29-2.5-44.54-6.36c-5.62-1.93-10.15-4.21-13.1-6.61s-4.24-4.72-4.24-7v-33.37Z" transform="translate(-1465.31 -2190.85)"/></svg>