<svg id="Layer_1" data-name="Layer 1" xmlns="http://www.w3.org/2000/svg" viewBox="0 0 212.62 173.72"><defs><style>.cls-1{fill:#000100;stroke:#000100;stroke-miterlimit:10;stroke-width:4.58px;}</style></defs><title>orchestrator</title><path class="cls-1" d="M532.46,1637.86a18.28,18.28,0,0,0-25-.78L473.32,1603A30.95,30.95,0,0,0,438,1553.39l-42-42.12h0a39,39,0,0,0-54.84,55.41l18.69,19a10.79,10.79,0,0,0,7.24,3.44h0a11.21,11.21,0,0,0,10.54-11.2,12.3,12.3,0,0,0-.14-1.37L378,1577a10.42,10.42,0,0,0,7.58,3,10.56,10.56,0,0,0,10.49-12l0.46,0.46a10.44,10.44,0,0,0,7.38,3.16,10.63,10.63,0,0,0,7.51-3.12,10.49,10.49,0,0,0,3.09-7.54,10.86,10.86,0,0,0-.14-1.28l8.75,8.75a30.81,30.81,0,0,0,5.86,34.61l-34.36,34.36a18.23,18.23,0,0,0-25.45.37,18.32,18.32,0,0,0,0,25.84,18.25,18.25,0,0,0,25.84,0,18.32,18.32,0,0,0,1.19-24.53l34.54-34.56a31.15,31.15,0,0,0,19,7.81v20.32a17.57,17.57,0,0,0-11.45,5.29,18.27,18.27,0,1,0,25.84,0,18.1,18.1,0,0,0-12.09-5.29v-20.18a31.61,31.61,0,0,0,19.61-7.79l34.17,34.17a18.26,18.26,0,0,0,13.72,30.3,18.14,18.14,0,0,0,12.92-5.36,18.32,18.32,0,0,0,0-25.91Zm-125.87-89.19a1.15,1.15,0,0,0-1.62,0h0a1.15,1.15,0,0,0,0,1.62h0l0.21,0.21,4.58,4.58a8.41,8.41,0,0,1,2.47,5.91,8.26,8.26,0,0,1-14.11,5.91l-4.58-4.58h-0.16l-0.25-.32-2.93-2.93a1.15,1.15,0,0,0-1.62,0h0a1.15,1.15,0,0,0,0,1.62h0l2.93,2.93a8.38,8.38,0,0,1,0,11.84,8.29,8.29,0,0,1-11.7,0l-4.58-4.58h-0.16l-0.25-.32-2.93-2.93a1.15,1.15,0,0,0-1.62,0h0a1.15,1.15,0,0,0,0,1.62h0l2.93,2.93a8.41,8.41,0,0,1,2.31,5.5,9,9,0,0,1-2.41,6.25,8.61,8.61,0,0,1-5.8,2.91h0a8.5,8.5,0,0,1-5.8-2.75l-18.69-18.87a36.82,36.82,0,0,1,26-62.83,36.47,36.47,0,0,1,26,10.74h0l62.42,62.39a8.38,8.38,0,0,1,2.47,5.91,8.2,8.2,0,0,1-2.41,5.91,8.29,8.29,0,0,1-11.7,0l-34-34-4.58-4.58Zm46.66,19.86a13.13,13.13,0,1,1-15.07,14.91l5.59,5.59a10.44,10.44,0,0,0,7.42,3.07,10.65,10.65,0,0,0,7.54-18.19Zm-28.38,1.63,11.8,11.8a14.52,14.52,0,1,0,24.82-10.71l-0.08-.08a14.52,14.52,0,0,0-9.69-4.24l-11.82-11.82a28.65,28.65,0,1,1-15,15h0Zm-31.56,91.92a16.21,16.21,0,0,1-22.58,0,16,16,0,0,1,0-22.58,16.21,16.21,0,0,1,22.58,0,16,16,0,0,1,0,22.58h0Zm69.17,0a16.21,16.21,0,0,1-22.58,0,16,16,0,0,1,0-22.58,16.21,16.21,0,0,1,22.58,0,16,16,0,0,1,0,22.58h0Zm68.37,0a16.21,16.21,0,0,1-22.58,0,16,16,0,0,1,0-22.58,16.21,16.21,0,0,1,22.58,0,16,16,0,0,1,0,22.58h0Z" transform="translate(-327.52 -1497.75)"/></svg>