<svg id="Layer_1" data-name="Layer 1" xmlns="http://www.w3.org/2000/svg" viewBox="0 0 129.19 161.56"><defs><style>.cls-1{fill:#000100;stroke-width:5px;}.cls-1,.cls-2,.cls-3{stroke:#1d1d1b;stroke-miterlimit:10;}.cls-2,.cls-3{fill:none;}.cls-2{stroke-width:6px;}.cls-3{stroke-width:8px;}</style></defs><title>robotic-process</title><path class="cls-1" d="M1040.67,1954.71c-0.73,0-1.38-.09-2.3-0.18a17.78,17.78,0,0,1,2.39-35.44,18,18,0,0,1,17.9,15.28,25.25,25.25,0,0,1,.18,2.53,15.34,15.34,0,0,1-.37,3.53,18,18,0,0,1-13.68,13.83A21.4,21.4,0,0,1,1040.67,1954.71Zm0-32a14.2,14.2,0,0,0-1.84,28.3,13.13,13.13,0,0,0,1.84.09,13,13,0,0,0,3.21-.36,14.29,14.29,0,0,0,10.83-11,14.5,14.5,0,0,0,.28-2.8,16,16,0,0,0-.18-2,14.25,14.25,0,0,0-4.59-8.5A13.57,13.57,0,0,0,1040.67,1922.7Z" transform="translate(-1020.18 -1859.53)"/><line class="cls-2" x1="14.43" y1="94.14" x2="44.32" y2="160.14"/><line class="cls-2" x1="32.78" y1="92.61" x2="62.67" y2="158.61"/><line class="cls-2" x1="27.24" y1="60.81" x2="85.6" y2="26.81"/><line class="cls-2" x1="38.67" y1="69.75" x2="90.95" y2="39.51"/><line class="cls-2" x1="82.22" y1="40.92" x2="88.19" y2="0.44"/><line class="cls-2" x1="84.65" y1="3.9" x2="115.85" y2="6.51"/><line class="cls-2" x1="126.5" y1="20.61" x2="111.85" y2="49.87"/><line class="cls-2" x1="116.99" y1="48.47" x2="84.39" y2="37.26"/><path class="cls-2" d="M1115.95,1896.77" transform="translate(-1020.18 -1859.53)"/><path class="cls-2" d="M1103.59,1926.94" transform="translate(-1020.18 -1859.53)"/><path class="cls-2" d="M1145.15,1908.45" transform="translate(-1020.18 -1859.53)"/><path class="cls-3" d="M1132.79,1938.63" transform="translate(-1020.18 -1859.53)"/><line class="cls-2" x1="12.51" y1="158.56" x2="128.51" y2="158.56"/></svg>