<svg id="Layer_1" data-name="Layer 1" xmlns="http://www.w3.org/2000/svg" viewBox="0 0 218 218"><defs><style>.cls-1{fill:none;stroke:#1d1d1b;stroke-miterlimit:10;stroke-width:6px;}</style></defs><title>c</title><path class="cls-1" d="M137,152.31a27,27,0,1,1,12.49-10.92A26.84,26.84,0,0,1,137,152.31Z"/><path class="cls-1" d="M149.45,141.39A27.1,27.1,0,0,1,137,152.31l12.13,13.81h0l15.43,17.57a5.74,5.74,0,0,0,8.1.52l3.84-3.36a5.75,5.75,0,0,0,.52-8.11l-16.37-18.64h0Z"/><path class="cls-1" d="M160.61,154.1l-11.16-12.71A26.94,26.94,0,1,0,137,152.31l12.13,13.81h0a143.74,143.74,0,0,1-32.89,23C105.48,185,30.82,153.17,43,60.27c0,0,47.45-23.33,72.3-35.58l72.22,35.58C193.07,102.5,178.28,133.21,160.61,154.1Z"/><path class="cls-1" d="M116.2,189.09l1.27,0.46"/><path class="cls-1" d="M115.29,24.68l1.64-.8"/><path class="cls-1" d="M114.81,189.74l1.39-.65"/><path class="cls-1" d="M113.65,23.88l1.64,0.8"/></svg>