<svg id="Layer_1" data-name="Layer 1" xmlns="http://www.w3.org/2000/svg" viewBox="0 0 218 218"><defs><style>.cls-1,.cls-2,.cls-3{fill:none;stroke:#1d1d1b;stroke-miterlimit:10;}.cls-1{stroke-width:7px;}.cls-2{stroke-width:11px;}.cls-3{stroke-width:16px;}.cls-4{fill:#1d1d1b;}</style></defs><title>service-management</title><path class="cls-1" d="M118.82,79V182.06a13.65,13.65,0,0,1-13.65,13.65h-6.5A13.65,13.65,0,0,1,85,182.06V75.63"/><path class="cls-1" d="M118.82,77v-2"/><path class="cls-1" d="M114.75,8.54V43.71H86.81V9.39a37.31,37.31,0,0,0-23.4,34.32c0,20.6,17.24,37.3,38.51,37.3s38.51-16.7,38.51-37.3C140.43,27.47,129.71,13.66,114.75,8.54Z"/><line class="cls-1" x1="28.04" y1="117.02" x2="62.42" y2="116.95"/><line class="cls-2" x1="64.74" y1="90.06" x2="64.74" y2="143.84"/><line class="cls-1" x1="31.52" y1="113.96" x2="31.52" y2="167.92"/><line class="cls-1" x1="31.52" y1="161.6" x2="31.52" y2="216.17"/><line class="cls-1" x1="179.84" y1="116.95" x2="138.25" y2="116.95"/><line class="cls-2" x1="135.93" y1="90.06" x2="135.93" y2="143.84"/><line class="cls-1" x1="169.15" y1="114.38" x2="169.15" y2="167.92"/><line class="cls-1" x1="169.15" y1="161.6" x2="169.15" y2="216.17"/><line class="cls-1" x1="27.93" y1="212.41" x2="172.8" y2="212.55"/><line class="cls-3" x1="185.62" y1="104.53" x2="185.99" y2="129.5"/><line class="cls-1" x1="186.14" y1="134.66" x2="186.14" y2="167.92"/><circle class="cls-4" cx="185.92" cy="93.68" r="6.33"/><circle class="cls-4" cx="186.41" cy="172.44" r="6.33"/></svg>