<svg id="Layer_1" data-name="Layer 1" xmlns="http://www.w3.org/2000/svg" viewBox="0 0 164.71 193.23"><defs><style>.cls-1{fill:#000100;}.cls-2{fill:none;stroke:#000100;stroke-miterlimit:10;stroke-width:6.72px;}</style></defs><title>web-server</title><line class="cls-1" x1="78.72" y1="192.64" x2="85.6" y2="192.64"/><line class="cls-1" x1="92.49" y1="192.64" x2="99.38" y2="192.64"/><line class="cls-1" x1="64.95" y1="192.64" x2="71.83" y2="192.64"/><path class="cls-1" d="M368.38,2334.57l0,0,2.52,2.48a82,82,0,0,0,57.14,23.3H424.9v22.23h6.89v-22.27h-3.11a83.13,83.13,0,0,0,24.81-3.95A81.79,81.79,0,0,0,485.78,2337l2.52-2.48,0,0a82.4,82.4,0,0,0,0-113.45l0,0-2.52-2.48a81.81,81.81,0,0,0-54.58-23.22c-0.92,0-1.89-.08-2.86-0.08a23,23,0,0,0-2.94.17,83.4,83.4,0,0,0-13,1.39,81.75,81.75,0,0,0-41.53,21.79l-2.52,2.48,0,0C338.61,2252.83,338.95,2302.54,368.38,2334.57Zm108.45,1.26c-0.84.71-1.68,1.39-2.56,2.06s-2.06,1.51-3.11,2.27c-0.88.63-1.76,1.22-2.69,1.81-1.09.67-2.18,1.34-3.32,1.93-0.92.5-1.85,1-2.77,1.51q-1.76.88-3.53,1.64c-1,.42-1.89.84-2.86,1.22-1.13.42-2.27,0.8-3.4,1.18,5.88-5.75,10.92-13.56,14.86-22.93a76.52,76.52,0,0,1,10.83,8C477.8,2335,477.34,2335.41,476.84,2335.83Zm6.38-6a84.85,84.85,0,0,0-13.31-9.7,130,130,0,0,0,6.55-38.84h27.42A74.79,74.79,0,0,1,483.22,2329.78Zm20.62-55.38H476.46a130,130,0,0,0-6.55-38.84,82.61,82.61,0,0,0,13.27-9.7A74.62,74.62,0,0,1,503.84,2274.4Zm-47.82-67c1,0.38,1.89.8,2.81,1.22,1.22,0.55,2.39,1,3.57,1.64,0.92,0.46,1.85,1,2.73,1.51,1.13,0.63,2.27,1.3,3.36,2,0.88,0.55,1.76,1.18,2.65,1.76,1,0.76,2.14,1.51,3.15,2.31l2.52,2c0.5,0.42,1,.88,1.47,1.3a76.52,76.52,0,0,1-10.83,8c-3.9-9.32-9-17.13-14.82-22.88C453.75,2206.59,454.88,2207,456,2207.39Zm-24.23-5c12.05,1.85,22.67,13.23,29.56,30a75.08,75.08,0,0,1-29.56,7.39v-37.41Zm0,44.3a82.49,82.49,0,0,0,32-7.85,125,125,0,0,1,5.88,35.52H431.79v-27.67Zm0,34.51h37.79a125.28,125.28,0,0,1-5.88,35.56,82.11,82.11,0,0,0-31.91-7.85v-27.71Zm0,34.6a75.08,75.08,0,0,1,29.56,7.39c-6.89,16.79-17.51,28.17-29.56,30v-37.41h0Zm-78.94-34.6h27.38a130,130,0,0,0,6.55,38.84,82.61,82.61,0,0,0-13.27,9.7,74.58,74.58,0,0,1-20.66-48.54h0Zm47.78,67.05c-0.88-.38-1.85-0.84-2.77-1.26-1.18-.55-2.39-1-3.57-1.64-0.92-.46-1.85-1-2.77-1.51-1.13-.63-2.23-1.26-3.36-2-0.92-.59-1.81-1.18-2.69-1.76q-1.57-1.07-3.15-2.27c-0.84-.67-1.68-1.34-2.52-2.06-0.5-.42-1-0.88-1.47-1.3a73.39,73.39,0,0,1,10.83-8c3.95,9.36,9,17.17,14.86,22.93C402.9,2349.09,401.76,2348.72,400.63,2348.3Zm24.27,4.91c-12.05-1.85-22.67-13.23-29.56-30a75.76,75.76,0,0,1,29.56-7.35v37.37h0Zm0-44.25a81.92,81.92,0,0,0-31.91,7.85,125,125,0,0,1-5.88-35.56H424.9V2309h0Zm0-34.6H387.11a124.73,124.73,0,0,1,5.88-35.52,81.37,81.37,0,0,0,31.91,7.85v27.67Zm0-71.92v37.41a75.08,75.08,0,0,1-29.56-7.39c6.89-16.79,17.51-28.17,29.56-30h0Zm-45.05,17.38c0.84-.71,1.68-1.39,2.52-2.06,1-.8,2.06-1.51,3.11-2.27,0.88-.63,1.76-1.22,2.69-1.81,1.09-.67,2.18-1.34,3.32-1.93,0.92-.5,1.85-1,2.77-1.51q1.76-.88,3.53-1.64c1-.42,1.89-0.84,2.86-1.22s2.23-.8,3.36-1.18c-5.88,5.75-10.92,13.56-14.82,22.88a76.52,76.52,0,0,1-10.83-8C378.88,2220.7,379.34,2220.23,379.85,2219.81Zm-6.34,6a82.61,82.61,0,0,0,13.27,9.7,130,130,0,0,0-6.55,38.84H352.85A74.79,74.79,0,0,1,373.51,2225.86Z" transform="translate(-346.18 -2195.25)"/><line class="cls-2" x1="28.72" y1="189.87" x2="132.43" y2="189.87"/><path class="cls-2" d="M428.34,2349.77" transform="translate(-346.18 -2195.25)"/></svg>