<svg id="Layer_1" data-name="Layer 1" xmlns="http://www.w3.org/2000/svg" viewBox="0 0 218 218"><defs><style>.cls-1{fill:#010202;stroke-width:2px;}.cls-1,.cls-4{stroke:#000100;}.cls-1,.cls-2,.cls-4{stroke-miterlimit:10;}.cls-2,.cls-4{fill:none;stroke-width:6px;}.cls-2{stroke:#1d1d1b;}.cls-3{fill:#fff;}</style></defs><title>Cape all icon Ai - white</title><path class="cls-1" d="M100.07,138.79A14.92,14.92,0,1,1,115,123.85v0A15,15,0,0,1,100.07,138.79Zm0-25.56a10.65,10.65,0,1,0,10.65,10.65h0a10.68,10.68,0,0,0-10.65-10.66h0Zm8.52,58.58h-17a2.14,2.14,0,0,1-2.13-2.13v-8.95a36.37,36.37,0,0,1-7.88-3.3l-6.29,6.29a2.06,2.06,0,0,1-2.91.07l-0.07-.07-12.15-12a2.06,2.06,0,0,1-.07-2.91l0.07-.07,6.29-6.27a39.84,39.84,0,0,1-3.3-7.89H54.26a2.14,2.14,0,0,1-2.13-2.13V115.32a2.14,2.14,0,0,1,2.13-2.13h8.95a36.26,36.26,0,0,1,3.3-7.86L60.22,99a2.06,2.06,0,0,1-.07-2.91L60.22,96l12-12a2.06,2.06,0,0,1,2.91-.07L75.25,84l6.29,6.29A39.72,39.72,0,0,1,89.41,87V78.06a2.15,2.15,0,0,1,2.13-2.14h17a2.15,2.15,0,0,1,2.13,2.14V87a36.37,36.37,0,0,1,7.88,3.3L124.87,84a2.06,2.06,0,0,1,2.91-.07L127.86,84l12,12A2.06,2.06,0,0,1,140,99L139.9,99l-6.29,6.29a39.72,39.72,0,0,1,3.3,7.88h8.95a2.14,2.14,0,0,1,2.13,2.13v17a2.14,2.14,0,0,1-2.13,2.13h-9a36.37,36.37,0,0,1-3.3,7.88l6.29,6.29a2.06,2.06,0,0,1,.07,2.91l-0.07.07L128,163.78a2.06,2.06,0,0,1-2.91.07l-0.07-.07-6.29-6.29a39.72,39.72,0,0,1-7.88,3.3v8.84a2.31,2.31,0,0,1-2.21,2.16h0Zm-14.92-4.26h12.78V159a2.05,2.05,0,0,1,1.6-2,35.25,35.25,0,0,0,9.69-4,2.11,2.11,0,0,1,2.66.31l6,6,9.05-9-6-6a2.11,2.11,0,0,1-.32-2.66,35.29,35.29,0,0,0,4.06-9.69,2.05,2.05,0,0,1,2-1.6h8.52V117.51h-8.52a2.05,2.05,0,0,1-2-1.6,35.29,35.29,0,0,0-4-9.69,2.11,2.11,0,0,1,.32-2.66l6-6-9-9.09-6,6a2.11,2.11,0,0,1-2.66.32,35.29,35.29,0,0,0-9.69-4,2.05,2.05,0,0,1-1.6-2V80.19H93.71v8.52a2.05,2.05,0,0,1-1.6,2,35.29,35.29,0,0,0-9.69,4,2.11,2.11,0,0,1-2.66-.32l-6-6-9.1,9,6,6a2.11,2.11,0,0,1,.32,2.66,35.29,35.29,0,0,0-4,9.69,2,2,0,0,1-2,1.59H56.4v12.78h8.52a2.06,2.06,0,0,1,2,1.62,35.29,35.29,0,0,0,4,9.69,2.11,2.11,0,0,1-.32,2.66l-6,6,9.05,9.05,6-6a2.11,2.11,0,0,1,2.66-.31,35.25,35.25,0,0,0,9.7,4,2.05,2.05,0,0,1,1.6,2v8.54Z"/><rect class="cls-2" x="6.87" y="39.27" width="204.26" height="147.06"/><line class="cls-2" x1="6.85" y1="61.85" x2="211.12" y2="62.46"/><line class="cls-2" x1="17.19" y1="49.16" x2="25.4" y2="49.16"/><line class="cls-2" x1="177.4" y1="49.22" x2="201.22" y2="49.1"/><polygon class="cls-3" points="126.84 136.98 141.84 151.17 137.34 158 122.15 142 126.84 136.98"/><polygon class="cls-3" points="129.04 130.03 138.42 140.06 146.74 136.89 132.46 121.92 129.04 130.03"/><polyline class="cls-4" points="130.27 135.91 142.27 148.47 174.47 118.64"/></svg>