<svg id="Layer_1" data-name="Layer 1" xmlns="http://www.w3.org/2000/svg" viewBox="0 0 80.63 72.13"><defs><style>.cls-1{fill:none;stroke:#000;stroke-miterlimit:10;stroke-width:2px;}</style></defs><title>quality code</title><path d="M96-326.33V-266h80.44v-60.33H96Zm77.57,57.46H98.87v-54.59h74.7v54.59Z" transform="translate(-95.95 338.13)"/><rect x="108.99" y="-302.68" width="17.24" height="2.87" transform="translate(151.5 333.05) rotate(-45)"/><rect x="117.18" y="-297.25" width="2.87" height="14.36" transform="translate(143.9 337.04) rotate(-45)"/><rect x="146.19" y="-292.52" width="17.24" height="2.87" transform="translate(155.22 362.34) rotate(-45)"/><rect x="152.35" y="-309.44" width="2.88" height="14.36" transform="translate(162.82 358.34) rotate(-45)"/><rect x="120.46" y="-297.53" width="31.6" height="2.88" transform="translate(271.56 271.74) rotate(-69.9)"/><rect class="cls-1" x="1" y="1" width="78.63" height="12"/><rect x="5.43" y="5.25" width="3" height="3"/><rect x="10.68" y="5.25" width="3" height="3"/><rect x="15.93" y="5.25" width="3" height="3"/></svg>