<svg id="Layer_1" data-name="Layer 1" xmlns="http://www.w3.org/2000/svg" viewBox="0 0 240 240"><defs><style>.cls-1,.cls-2{fill:#000100;}.cls-1{stroke:#000100;stroke-width:4.58px;}.cls-1,.cls-3{stroke-miterlimit:10;}.cls-3{fill:none;stroke:#000;stroke-width:6px;}</style></defs><title> container orchestrator-01</title><path class="cls-1" d="M148,116.86a10.65,10.65,0,0,0-3.13-7.56l-5.48-5.38h0l-13.6-13.34c-0.79-.82-0.79-0.82-1.65-1.8l-42-42.12A39,39,0,0,0,27.3,102.07l18.69,19a10.77,10.77,0,0,0,7.24,3.44A11.21,11.21,0,0,0,63.8,113.33h0a12.45,12.45,0,0,0-.14-1.37l0.51,0.45a10.41,10.41,0,0,0,7.58,3,10.56,10.56,0,0,0,10.59-10.53h0a10.37,10.37,0,0,0-.1-1.47l0.46,0.46A10.47,10.47,0,0,0,90.08,107a10.63,10.63,0,0,0,7.51-3.12,10.49,10.49,0,0,0,3.09-7.54,10.89,10.89,0,0,0-.14-1.28l8.75,8.75c0.74,0.87,1.39,1.5,2,2.21l13.1,12.8h0l5.59,5.59a10.45,10.45,0,0,0,7.42,3.07A10.65,10.65,0,0,0,148,116.86Zm-37-11.3h0Zm20.71,17.17L93.18,84.15l-0.42-.09a1.15,1.15,0,0,0-1.62,1.62l4.79,4.79a8.41,8.41,0,0,1,2.47,5.91,8.26,8.26,0,0,1-14.11,5.91l-4.58-4.58H79.55l-0.25-.32-2.93-2.93a1.15,1.15,0,0,0-1.62,1.62L77.68,99A8.32,8.32,0,0,1,66,110.85l-4.58-4.58H61.24L61,106l-2.94-3a1.15,1.15,0,0,0-1.62,1.62l2.93,2.93a8.39,8.39,0,0,1,2.31,5.5,9,9,0,0,1-2.41,6.25,8.62,8.62,0,0,1-5.8,2.91,8.44,8.44,0,0,1-3.17-.81,8.32,8.32,0,0,1-2.63-1.94L29,100.61A36.8,36.8,0,0,1,81,48.52l62.42,62.39a8.41,8.41,0,0,1,2.47,5.91,8.19,8.19,0,0,1-2.41,5.91,8.29,8.29,0,0,1-11.72,0h-0.05Z"/><path class="cls-2" d="M131.08,128.43l-0.71-.41"/><path class="cls-3" d="M38.36,139.64v63.17H111V154.29l-0.35-14.82-36-.33"/><polyline class="cls-3" points="127.69 46.14 127.69 23.47 208.36 23.47 208.36 101.47 168.02 101.47"/><rect class="cls-3" x="142.93" y="153.64" width="65.43" height="49.17"/></svg>