<?xml version="1.0" standalone="no"?>
<!DOCTYPE svg PUBLIC "-//W3C//DTD SVG 20010904//EN"
 "http://www.w3.org/TR/2001/REC-SVG-20010904/DTD/svg10.dtd">
<svg version="1.0" xmlns="http://www.w3.org/2000/svg"
 width="122.000000pt" height="122.000000pt" viewBox="0 0 122.000000 122.000000"
 preserveAspectRatio="xMidYMid meet">
<metadata>
Created by potrace 1.15, written by Peter Selinger 2001-2017
</metadata>
<g transform="translate(0.000000,122.000000) scale(0.100000,-0.100000)"
fill="#000000" stroke="none">
<path d="M301 969 c-83 -72 -151 -135 -151 -139 0 -30 35 -7 161 103 l142 124
128 -141 127 -141 -23 -25 c-34 -37 -45 -64 -45 -111 0 -50 30 -103 70 -124
35 -18 99 -19 136 -3 26 12 29 10 103 -71 67 -72 91 -89 91 -60 0 5 -32 45
-71 89 -63 72 -71 84 -61 103 29 60 20 123 -24 170 l-27 29 68 68 c45 45 63
70 55 75 -8 5 -39 -19 -84 -62 -65 -63 -75 -69 -112 -68 -40 1 -44 4 -179 155
-76 85 -142 156 -146 158 -3 2 -75 -56 -158 -129z m549 -238 c56 -40 56 -123
0 -173 -93 -84 -236 49 -158 147 43 54 104 65 158 26z"/>
<path d="M370 520 l0 -340 85 0 85 0 0 340 0 340 -85 0 -85 0 0 -340z m140 0
l0 -310 -55 0 -55 0 0 310 0 310 55 0 55 0 0 -310z"/>
<path d="M70 450 l0 -270 90 0 90 0 0 270 0 270 -90 0 -90 0 0 -270z m140 -5
l0 -235 -55 0 -55 0 0 235 0 235 55 0 55 0 0 -235z"/>
<path d="M650 320 l0 -140 90 0 90 0 0 140 0 140 -90 0 -90 0 0 -140z m150 0
l0 -110 -55 0 -55 0 0 110 0 110 55 0 55 0 0 -110z"/>
</g>
</svg>
