<svg id="Layer_1" data-name="Layer 1" xmlns="http://www.w3.org/2000/svg" viewBox="0 0 174.59 205.18"><defs><style>.cls-1{fill:#000100;}</style></defs><title>machine-learning</title><path class="cls-1" d="M117.52,1476.26a74.47,74.47,0,0,0-69.64,61.9c-0.07.42-.39,0.72-0.46,1.14l-26.17,51.89a3.83,3.83,0,0,0,3.19,5.23H34.91v36.87a3.78,3.78,0,0,0,3.64,3.64H67.68l4.55,40.51a3.63,3.63,0,1,0,7.06-.91l-4.78-43.7a3.77,3.77,0,0,0-3.64-3.19H42.19v-36.87a3.78,3.78,0,0,0-3.64-3.64H30.36l24.12-47.56a3.65,3.65,0,0,0,.23-1.14A67.17,67.17,0,0,1,187.62,1560l-32.09,70.1a3.66,3.66,0,0,0-.23,1.82l4.1,45.29a3.73,3.73,0,0,0,3.87,4.1,3.85,3.85,0,0,0,3.19-4.78l-4.1-44.15,32.09-69.87a3.65,3.65,0,0,0,.23-0.91,74.24,74.24,0,0,0-62.36-84.66A73.39,73.39,0,0,0,117.52,1476.26Zm3.41,29.59a3.64,3.64,0,0,0-2.5,3.64v38.69l-27.31,27.08a3.64,3.64,0,0,0-.08,5.15l0.08,0.08a44.52,44.52,0,0,0,9.1,7.06,43.79,43.79,0,0,0,59.17-15.25,2895364.52,2895364.52,0,0,0,.91-1.82,43.52,43.52,0,0,0-38.23-64.63,3.64,3.64,0,0,0-.68,0h-0.46Zm-10,1.37-0.23.23a43.08,43.08,0,0,0-10.47,4.32,43.66,43.66,0,0,0-15.93,59.63l0.23,0.23,5.46-5.46a36.24,36.24,0,0,1,13.88-48.25,33.15,33.15,0,0,1,7.28-3v-7.74h-0.23Zm14.79,6.6c18.32,1.93,32.77,16.89,32.77,35.73a36.27,36.27,0,0,1-3.41,14.79l-29.36-16.84v-33.68Zm-3,40.28L151,1570.48c-10.83,14.91-30.79,20.12-47.11,10.7a36.17,36.17,0,0,1-4.55-3.64Z" transform="translate(-20.95 -1476.16)"/></svg>