<?xml version="1.0" standalone="no"?>
<!DOCTYPE svg PUBLIC "-//W3C//DTD SVG 20010904//EN"
 "http://www.w3.org/TR/2001/REC-SVG-20010904/DTD/svg10.dtd">
<svg version="1.0" xmlns="http://www.w3.org/2000/svg"
 width="122.000000pt" height="122.000000pt" viewBox="0 0 122.000000 122.000000"
 preserveAspectRatio="xMidYMid meet">
<metadata>
Created by potrace 1.15, written by Peter Selinger 2001-2017
</metadata>
<g transform="translate(0.000000,122.000000) scale(0.100000,-0.100000)"
fill="#000000" stroke="none">
<path d="M342 1127 c-46 -19 -52 -25 -47 -44 16 -67 16 -67 -24 -98 -21 -16
-49 -45 -62 -63 -22 -29 -28 -32 -73 -30 l-48 3 -24 -53 -23 -52 36 -24 35
-24 2 -95 1 -95 -37 -23 -36 -24 22 -52 c12 -29 24 -54 27 -57 2 -3 22 -1 43
4 37 8 39 7 104 -58 65 -66 69 -74 57 -129 -4 -18 3 -25 41 -43 62 -27 70 -26
95 12 l21 33 95 -1 c95 -2 96 -2 115 -33 23 -36 31 -37 92 -11 47 20 51 29 37
79 -5 21 4 34 63 92 38 37 74 66 80 64 63 -19 65 -18 91 41 14 32 24 58 23 59
-41 26 -68 48 -68 56 0 5 38 9 85 9 50 0 85 4 85 10 0 6 -97 10 -270 10 -232
0 -270 -2 -278 -15 -7 -13 -17 -9 -60 25 -29 23 -52 45 -51 48 0 4 24 26 53
49 49 38 54 40 59 22 5 -19 13 -19 273 -17 203 2 268 6 272 16 3 9 -18 12 -82
12 -47 0 -86 3 -86 8 0 4 16 17 34 29 l34 22 -21 56 -22 56 -42 -6 c-40 -6
-43 -5 -108 59 -66 65 -66 66 -60 109 l7 44 -58 21 c-31 13 -58 21 -59 20 -1
-2 -11 -17 -24 -35 l-22 -32 -94 0 -94 0 -21 34 c-12 19 -25 35 -28 34 -4 0
-31 -10 -60 -22z m76 -39 l21 -33 107 1 c111 0 114 1 143 52 6 11 14 11 46 -2
36 -16 37 -17 31 -56 -6 -38 -4 -41 69 -115 74 -73 77 -75 115 -69 37 6 40 5
53 -27 14 -34 13 -34 -26 -71 -35 -33 -47 -38 -86 -38 -45 0 -46 1 -64 45 -44
105 -160 179 -282 179 -95 0 -160 -30 -225 -101 -111 -121 -105 -321 12 -429
73 -67 104 -79 213 -79 91 0 104 3 146 27 57 34 115 97 141 154 18 42 21 44
60 44 29 0 47 -6 62 -23 11 -12 31 -30 44 -38 23 -16 23 -17 6 -53 -17 -35
-19 -36 -63 -31 -45 6 -47 5 -73 -35 -16 -22 -46 -52 -68 -68 -39 -26 -40 -28
-34 -73 l6 -47 -38 -12 c-34 -12 -38 -11 -55 11 -10 13 -19 28 -19 33 0 5 -28
6 -62 3 -35 -3 -84 -2 -110 2 -27 4 -48 5 -48 2 0 -3 -10 -19 -23 -35 -22 -27
-25 -28 -60 -17 l-37 13 6 47 c6 46 6 47 -35 74 -22 15 -53 46 -68 68 -27 41
-28 41 -74 35 l-47 -6 -12 36 c-12 36 -12 38 20 64 32 26 33 28 26 81 -4 30
-3 75 2 101 9 47 9 48 -24 69 -37 22 -40 34 -22 75 11 24 15 26 58 20 43 -6
47 -4 63 24 10 16 41 49 68 72 50 42 51 44 45 85 -5 41 -4 44 27 57 44 20 43
20 65 -16z m265 -191 c52 -31 111 -96 126 -138 l10 -29 -94 0 -94 0 -3 31 -3
31 -87 -68 c-48 -38 -87 -72 -88 -76 0 -7 162 -138 172 -138 4 0 8 12 10 28 3
27 4 27 87 30 46 2 88 -1 93 -6 4 -4 -7 -32 -25 -62 -35 -58 -104 -113 -165
-130 -209 -58 -409 144 -348 352 39 136 148 212 292 205 55 -3 82 -10 117 -30z"/>
</g>
</svg>
