<?xml version="1.0" standalone="no"?>
<!DOCTYPE svg PUBLIC "-//W3C//DTD SVG 20010904//EN"
 "http://www.w3.org/TR/2001/REC-SVG-20010904/DTD/svg10.dtd">
<svg version="1.0" xmlns="http://www.w3.org/2000/svg"
 width="122.000000pt" height="122.000000pt" viewBox="0 0 122.000000 122.000000"
 preserveAspectRatio="xMidYMid meet">
<metadata>
Created by potrace 1.15, written by Peter Selinger 2001-2017
</metadata>
<g transform="translate(0.000000,122.000000) scale(0.100000,-0.100000)"
fill="#000000" stroke="none">
<path d="M543 1185 l-35 -35 -179 0 -179 0 0 -575 0 -575 460 0 460 0 0 575 0
575 -179 0 -179 0 -35 35 c-25 25 -44 35 -67 35 -23 0 -42 -10 -67 -35z m101
-21 c9 -8 16 -24 16 -35 0 -14 7 -19 29 -19 53 0 61 -8 61 -61 l0 -49 -140 0
-140 0 0 56 0 56 42 -3 c39 -3 42 -1 49 25 13 46 53 61 83 30z m-214 -74 c0
-19 -7 -20 -100 -20 l-100 0 0 -500 0 -500 380 0 380 0 0 500 0 500 -100 0
c-94 0 -100 1 -100 20 0 20 5 21 118 18 l117 -3 3 -532 2 -533 -420 0 -420 0
0 528 c0 291 3 532 7 535 3 4 57 7 120 7 106 0 113 -1 113 -20z m0 -95 l0 -35
180 0 180 0 0 35 0 35 80 0 80 0 0 -460 0 -460 -340 0 -340 0 0 460 0 460 80
0 80 0 0 -35z"/>
<path d="M500 855 l0 -25 200 0 200 0 0 25 0 25 -200 0 -200 0 0 -25z"/>
<path d="M320 415 l0 -245 290 0 290 0 0 245 0 245 -290 0 -290 0 0 -245z
m540 170 l0 -35 -174 0 -175 0 2 35 2 35 173 0 172 0 0 -35z m0 -115 l0 -40
-170 0 c-185 0 -189 1 -176 55 l6 25 170 0 170 0 0 -40z m0 -115 l0 -35 -172
2 -173 3 -3 33 -3 32 175 0 176 0 0 -35z m0 -110 l0 -35 -172 2 c-157 3 -173
5 -176 21 -9 45 -2 47 178 47 l170 0 0 -35z"/>
</g>
</svg>
