<?xml version="1.0" encoding="utf-8"?>
<!-- Generator: Adobe Illustrator 19.2.1, SVG Export Plug-In . SVG Version: 6.00 Build 0)  -->
<svg version="1.1" xmlns="http://www.w3.org/2000/svg" xmlns:xlink="http://www.w3.org/1999/xlink" x="0px" y="0px"
	 viewBox="0 0 218 218" style="enable-background:new 0 0 218 218;" xml:space="preserve">
<style type="text/css">
	.st0{fill:#9D9D9C;}
	.st1{fill:none;stroke:#000000;stroke-width:7;stroke-miterlimit:10;}
	.st2{fill:#FFFFFF;stroke:#000000;stroke-width:5;stroke-miterlimit:10;}
	.st3{fill:#FFFFFF;stroke:#000000;stroke-width:0;stroke-miterlimit:10;}
	.st4{fill:none;stroke:#000000;stroke-miterlimit:10;}
	.st5{fill:#FFFFFF;stroke:#000000;stroke-miterlimit:10;}
	.st6{fill:#FFFFFF;stroke:#000000;stroke-width:4;stroke-miterlimit:10;}
	.st7{fill:#010202;}
	.st8{fill:none;stroke:#000000;stroke-width:6.4059;stroke-miterlimit:10;}
	.st9{fill:#FFFFFF;stroke:#000000;stroke-width:7;stroke-miterlimit:10;}
	.st10{fill:#010202;stroke:#010202;stroke-width:2;stroke-miterlimit:10;}
	.st11{fill:none;stroke:#000000;stroke-width:6;stroke-miterlimit:10;}
	.st12{stroke:#000000;stroke-width:6;stroke-miterlimit:10;}
	.st13{fill:none;stroke:#000000;stroke-width:11;stroke-miterlimit:10;}
	.st14{fill:none;stroke:#000000;stroke-width:16;stroke-miterlimit:10;}
	.st15{fill:none;stroke:#010202;stroke-width:6.718;stroke-miterlimit:10;}
	.st16{fill:#020303;stroke:#010202;stroke-width:2;stroke-miterlimit:10;}
	.st17{fill:#010202;stroke:#010202;stroke-width:4.5811;stroke-miterlimit:10;}
	.st18{fill:#010202;stroke:#000000;stroke-width:5;stroke-miterlimit:10;}
	.st19{fill:none;stroke:#000000;stroke-width:8;stroke-miterlimit:10;}
	.st20{fill:none;stroke:#010202;stroke-width:7.2568;stroke-miterlimit:10;}
	.st21{fill:#010202;stroke:#010202;stroke-width:2.4189;stroke-miterlimit:10;}
	.st22{fill:#FFFFFF;}
	.st23{fill:none;stroke:#010202;stroke-width:7.2319;stroke-miterlimit:10;}
	.st24{fill:none;stroke:#010202;stroke-width:8.0033;stroke-miterlimit:10;}
	.st25{fill:none;stroke:#010202;stroke-width:7.39;stroke-miterlimit:10;}
	.st26{fill:none;stroke:#010202;stroke-width:4.8931;stroke-miterlimit:10;}
	.st27{fill:none;stroke:#1E1E1C;stroke-width:7;stroke-miterlimit:10;}
	.st28{fill:#010202;stroke:#1E1E1C;stroke-width:3;stroke-miterlimit:10;}
	.st29{fill:none;stroke:#000000;stroke-width:7.1159;stroke-miterlimit:10;}
	.st30{stroke:#000000;stroke-width:7.1159;stroke-miterlimit:10;}
	.st31{fill:none;stroke:#000000;stroke-width:5;stroke-miterlimit:10;}
	.st32{fill:none;stroke:#000000;stroke-width:5.2674;stroke-miterlimit:10;}
	.st33{fill:none;stroke:#000000;stroke-width:5.4928;stroke-miterlimit:10;}
	.st34{fill:#FFFFFF;stroke:#000000;stroke-width:10;stroke-miterlimit:10;}
	.st35{fill:#010203;}
	.st36{fill:#FFFFFF;stroke:#000000;stroke-width:8.8687;stroke-miterlimit:10;}
	.st37{fill:#716F74;}
	.st38{fill:#C7E1F7;}
	.st39{fill:#AFD6F3;}
	.st40{fill:none;stroke:#000000;stroke-width:7.808;stroke-miterlimit:10;}
	.st41{stroke:#000000;stroke-width:3.4033;stroke-miterlimit:10;}
	.st42{fill:none;stroke:#000000;stroke-width:6.4634;stroke-miterlimit:10;}
	.st43{stroke:#000000;stroke-width:2.8173;stroke-miterlimit:10;}
	.st44{fill:none;stroke:#000000;stroke-width:3.2238;stroke-miterlimit:10;}
	.st45{opacity:0.38;fill:#B2B2B2;}
	.st46{fill:#C2DAF0;}
	.st47{fill:#216AB3;}
	.st48{fill:#1C1D22;}
	.st49{fill:#060608;}
	.st50{fill:#020304;}
	.st51{fill:#020303;}
	.st52{fill:#030304;}
	.st53{fill:#020203;}
	.st54{fill:#FEFEFE;}
	.st55{stroke:#000000;stroke-width:3;stroke-miterlimit:10;}
</style>
<g id="Layer_2">
</g>
<g id="Layer_1">
	<path class="st7" d="M145,197.3c-0.5-0.5-0.9-1.3-0.9-2.1l0.2-51.1c0-1.7,1.4-3,3-3c1.7,0,3,1.4,3,3l-0.2,51.1c0,1.7-1.4,3-3,3
		C146.3,198.2,145.5,197.8,145,197.3z"/>
	<path class="st7" d="M170.1,203.8l0.3-68.1c0-1.2-0.3-2.4-1-3.3l-6.3-9.5l6.3-9.4c1.2-1.8,1.4-4.2,0.3-6.2c-0.3-0.5-0.6-1-1-1.4
		c-1.1-1.1-2.6-1.8-4.2-1.8l-6.7,0l0.2-63.8l2.5-2.5c1.1-1.1,1.8-2.7,1.8-4.2L162.4,8c0-1.7-0.7-3.2-1.7-4.3s-2.6-1.8-4.2-1.8
		l-17-0.1c-3.3,0-6,2.7-6,6l-0.1,25.5c0,1.6,0.6,3.1,1.7,4.3l2.5,2.5l-0.2,63.8l-6.7,0c-2.2,0-4.3,1.2-5.3,3.2
		c-1.1,2-0.9,4.3,0.3,6.2l6.3,9.5l-6.3,9.4c-0.7,1-1,2.1-1,3.3l-0.3,68.1c0,1.6,0.6,3.1,1.7,4.3c10.9,11,31.6,11.1,42.6,0.2
		C169.5,206.9,170.1,205.4,170.1,203.8z M139.3,7.9l17,0.1l0,5.5l-17-0.1L139.3,7.9z M143.5,37.7l-4.2-4.3l0.1-14l17,0.1l-0.1,14
		l-4.3,4.2l-0.2,66.3l-8.5,0L143.5,37.7z M130.1,203.6l0.3-68.1l8.6-12.7l-8.5-12.8l34,0.1l-8.6,12.7l8.5,12.8l-0.3,68.1
		C155.6,212.2,138.5,212.2,130.1,203.6z"/>
	<path class="st8" d="M98,85.7v113.1c0,9.6-7.8,17.3-17.3,17.3h-2.9c-9.6,0-17.3-7.8-17.3-17.3V88.5V84"/>
	<path class="st8" d="M93.5,7.9V47H62.4V8.8c-15.3,6.3-26,21-26,38.2c0,22.9,19.2,41.5,42.8,41.5s42.8-18.6,42.8-41.5
		C122.1,28.9,110.1,13.6,93.5,7.9z"/>
</g>
</svg>
