<svg id="Layer_1" data-name="Layer 1" xmlns="http://www.w3.org/2000/svg" viewBox="0 0 218 218"><defs><style>.cls-1{fill:#fff;stroke-width:6px;}.cls-1,.cls-2{stroke:#1d1d1b;stroke-miterlimit:10;}.cls-2{fill:none;stroke-width:6.41px;}</style></defs><title>Cape</title><path class="cls-1" d="M140.26,190.06a73.64,73.64,0,0,1-31.32,7c-41.7,0-75.5-34.67-75.5-77.45s33.8-77.45,75.5-77.45,75.5,34.67,75.5,77.45a78.21,78.21,0,0,1-22.39,55"/><ellipse class="cls-1" cx="110.67" cy="42.96" rx="22.4" ry="22.97"/><ellipse class="cls-1" cx="38.93" cy="156.7" rx="22.4" ry="22.97"/><ellipse class="cls-1" cx="184.45" cy="133.73" rx="22.4" ry="22.97"/><path class="cls-2" d="M125.74,126.52l40.83,61.25a11.28,11.28,0,0,1-3.13,15.65l-1.59,1.06a11.28,11.28,0,0,1-15.65-3.13l-39.81-59.73-1.64-2.47"/><path class="cls-2" d="M95.19,86l14.13,21.2L92.48,118.42,78.69,97.74a27,27,0,0,0-.31,30.08c8.28,12.42,25.38,15.56,38.19,7s16.5-25.54,8.22-38A27.1,27.1,0,0,0,95.19,86Z"/></svg>