<svg id="Layer_1" data-name="Layer 1" xmlns="http://www.w3.org/2000/svg" viewBox="0 0 218 218"><defs><style>.cls-1,.cls-2{fill:none;stroke:#1d1d1b;stroke-miterlimit:10;}.cls-1{stroke-width:5px;}.cls-2{stroke-width:6px;}</style></defs><title>Cape all icon Ai - white</title><path class="cls-1" d="M163.89,112L189,149.7a7,7,0,0,1-1.93,9.63l-1,.65a7,7,0,0,1-9.63-1.93L152,121.29l-1-1.52"/><path class="cls-1" d="M144.94,86.38l8.7,13.05-10.37,6.91-8.49-12.73a16.64,16.64,0,0,0-.19,18.52,17.18,17.18,0,0,0,28.58-19A16.68,16.68,0,0,0,144.94,86.38Z"/><rect class="cls-2" x="6.96" y="42.37" width="205.64" height="148.05"/><line class="cls-2" x1="6.96" y1="66.28" x2="212.6" y2="66.9"/><line class="cls-2" x1="17.35" y1="53.71" x2="25.61" y2="53.71"/><line class="cls-2" x1="178.64" y1="53.77" x2="202.61" y2="53.65"/><line class="cls-2" x1="30.85" y1="96.67" x2="116.4" y2="96.67"/><line class="cls-2" x1="30.85" y1="118.67" x2="116.4" y2="118.67"/><line class="cls-2" x1="30.85" y1="139.45" x2="116.4" y2="139.45"/></svg>